name ./resultDataOpenSim/trcMotMarkerGrf/sub09/grf-12-01.mot
datacolumns 19
datarows 20
range 0.51200000 0.58800000
endheader

                time	     ground_force_vx	     ground_force_vy	     ground_force_vz	     ground_force_px	     ground_force_py	     ground_force_pz	   l_ground_force_vx	   l_ground_force_vy	   l_ground_force_vz	   l_ground_force_px	   l_ground_force_py	   l_ground_force_pz	     ground_torque_x	     ground_torque_y	     ground_torque_z	   l_ground_torque_x	   l_ground_torque_y	   l_ground_torque_z	
          0.51200000	         39.63599326	        465.78519917	         -3.14056276	         -0.65547766	          0.00000000	          0.06287912	          0.00000000	          0.00000000	          0.00000000	          0.00000000	          0.00000000	          0.00000000	          0.00000000	          7.89319174	          0.00000000	          0.00000000	          0.00000000	          0.00000000	
          0.51600000	         42.79698589	        473.77233813	         -7.63408489	         -0.65408603	          0.00000000	          0.06445226	          0.00000000	          0.00000000	          0.00000000	          0.00000000	          0.00000000	          0.00000000	          0.00000000	          7.50468718	          0.00000000	          0.00000000	          0.00000000	          0.00000000	
          0.52000000	         46.12273720	        482.87714140	        -12.71231369	         -0.65293917	          0.00000000	          0.06600588	          0.00000000	          0.00000000	          0.00000000	          0.00000000	          0.00000000	          0.00000000	          0.00000000	          6.98986142	          0.00000000	          0.00000000	          0.00000000	          0.00000000	
          0.52400000	         49.62712038	        493.28416087	        -18.03030919	         -0.65206512	          0.00000000	          0.06748091	          0.00000000	          0.00000000	          0.00000000	          0.00000000	          0.00000000	          0.00000000	          0.00000000	          6.40445938	          0.00000000	          0.00000000	          0.00000000	          0.00000000	
          0.52800000	         53.23248150	        504.89649711	        -23.24155258	         -0.65126593	          0.00000000	          0.06885677	          0.00000000	          0.00000000	          0.00000000	          0.00000000	          0.00000000	          0.00000000	          0.00000000	          5.80672498	          0.00000000	          0.00000000	          0.00000000	          0.00000000	
          0.53200000	         56.83734402	        517.57323246	        -28.04213788	         -0.65037538	          0.00000000	          0.07010735	          0.00000000	          0.00000000	          0.00000000	          0.00000000	          0.00000000	          0.00000000	          0.00000000	          5.24859532	          0.00000000	          0.00000000	          0.00000000	          0.00000000	
          0.53600000	         60.36681526	        531.33546865	        -32.19480618	         -0.64944660	          0.00000000	          0.07116693	          0.00000000	          0.00000000	          0.00000000	          0.00000000	          0.00000000	          0.00000000	          0.00000000	          4.76894917	          0.00000000	          0.00000000	          0.00000000	          0.00000000	
          0.54000000	         63.77690874	        546.26558178	        -35.53218447	         -0.64865506	          0.00000000	          0.07196255	          0.00000000	          0.00000000	          0.00000000	          0.00000000	          0.00000000	          0.00000000	          0.00000000	          4.38968806	          0.00000000	          0.00000000	          0.00000000	          0.00000000	
          0.54400000	         67.05588028	        562.19574006	        -37.97183489	         -0.64805271	          0.00000000	          0.07247725	          0.00000000	          0.00000000	          0.00000000	          0.00000000	          0.00000000	          0.00000000	          0.00000000	          4.11519985	          0.00000000	          0.00000000	          0.00000000	          0.00000000	
          0.54800000	         70.24398793	        578.59541204	        -39.53681972	         -0.64745842	          0.00000000	          0.07277345	          0.00000000	          0.00000000	          0.00000000	          0.00000000	          0.00000000	          0.00000000	          0.00000000	          3.93542025	          0.00000000	          0.00000000	          0.00000000	          0.00000000	
          0.55200000	         73.43973112	        594.88693896	        -40.33932334	         -0.64662155	          0.00000000	          0.07293697	          0.00000000	          0.00000000	          0.00000000	          0.00000000	          0.00000000	          0.00000000	          0.00000000	          3.83180293	          0.00000000	          0.00000000	          0.00000000	          0.00000000	
          0.55600000	         76.78155968	        610.89155818	        -40.52469233	         -0.64553044	          0.00000000	          0.07299219	          0.00000000	          0.00000000	          0.00000000	          0.00000000	          0.00000000	          0.00000000	          0.00000000	          3.78430305	          0.00000000	          0.00000000	          0.00000000	          0.00000000	
          0.56000000	         80.42854982	        626.86449474	        -40.22241570	         -0.64450089	          0.00000000	          0.07288950	          0.00000000	          0.00000000	          0.00000000	          0.00000000	          0.00000000	          0.00000000	          0.00000000	          3.77700167	          0.00000000	          0.00000000	          0.00000000	          0.00000000	
          0.56400000	         84.50914380	        643.01212445	        -39.53640828	         -0.64385326	          0.00000000	          0.07259586	          0.00000000	          0.00000000	          0.00000000	          0.00000000	          0.00000000	          0.00000000	          0.00000000	          3.80091356	          0.00000000	          0.00000000	          0.00000000	          0.00000000	
          0.56800000	         89.02430291	        659.04525498	        -38.54140958	         -0.64352482	          0.00000000	          0.07217454	          0.00000000	          0.00000000	          0.00000000	          0.00000000	          0.00000000	          0.00000000	          0.00000000	          3.85409827	          0.00000000	          0.00000000	          0.00000000	          0.00000000	
          0.57200000	         93.81954468	        674.31965500	        -37.25797985	         -0.64313130	          0.00000000	          0.07173906	          0.00000000	          0.00000000	          0.00000000	          0.00000000	          0.00000000	          0.00000000	          0.00000000	          3.94000334	          0.00000000	          0.00000000	          0.00000000	          0.00000000	
          0.57600000	         98.70898360	        688.39121187	        -35.64943182	         -0.64243111	          0.00000000	          0.07134531	          0.00000000	          0.00000000	          0.00000000	          0.00000000	          0.00000000	          0.00000000	          0.00000000	          4.06467274	          0.00000000	          0.00000000	          0.00000000	          0.00000000	
          0.58000000	        103.61584504	        701.31877807	        -33.66648845	         -0.64159151	          0.00000000	          0.07095234	          0.00000000	          0.00000000	          0.00000000	          0.00000000	          0.00000000	          0.00000000	          0.00000000	          4.23309912	          0.00000000	          0.00000000	          0.00000000	          0.00000000	
          0.58400000	        108.54820344	        713.38451830	        -31.30395026	         -0.64094654	          0.00000000	          0.07048951	          0.00000000	          0.00000000	          0.00000000	          0.00000000	          0.00000000	          0.00000000	          0.00000000	          4.44538318	          0.00000000	          0.00000000	          0.00000000	          0.00000000	
          0.58800000	        113.47760313	        724.59325583	        -28.63295304	         -0.64056438	          0.00000000	          0.06995063	          0.00000000	          0.00000000	          0.00000000	          0.00000000	          0.00000000	          0.00000000	          0.00000000	          4.69400429	          0.00000000	          0.00000000	          0.00000000	          0.00000000	
